<svg width="414" height="146" viewBox="0 0 414 146" fill="none" xmlns="http://www.w3.org/2000/svg">
<line x1="160.5" y1="27" x2="160.5" y2="120" stroke="black"/>
<path d="M184.624 56V40.016H179.488V56H184.624ZM198.829 56H203.893V40.016H199.117V49.016L192.637 40.016H187.549V56H192.325V47.024L198.829 56ZM193.456 67.76V64.016H178.192V67.76H183.256V80H188.392V67.76H193.456ZM210.912 80V64.016H205.776V70.088H200.232V64.016H195.096V80H200.232V73.832H205.776V80H210.912ZM226.831 80V76.304H218.935V73.568H225.103V70.232H218.935V67.712H226.711V64.016H213.799V80H226.831ZM190.72 104H195.784V88.016H191.008V97.016L184.528 88.016H179.44V104H184.216V95.024L190.72 104ZM211.691 104V100.304H203.795V97.568H209.963V94.232H203.795V91.712H211.571V88.016H198.659V104H211.691ZM219.101 104V88.016H213.965V104H219.101ZM230.786 98.12H233.066C232.922 99.704 231.818 100.784 230.066 100.784C227.666 100.784 226.61 98.744 226.61 96.008C226.61 93.536 227.834 91.472 230.186 91.472C231.818 91.472 232.946 92.528 233.162 94.208L237.146 93.224C236.762 89.648 234.026 87.728 230.186 87.728C224.306 87.728 221.186 91.136 221.186 96.008C221.186 100.592 223.706 104.288 229.082 104.288C231.842 104.288 233.546 103.112 234.362 101.264L234.89 104H237.65V95.768H230.786V98.12ZM256.17 104V88.016H251.034V94.088H245.49V88.016H240.354V104H245.49V97.832H251.034V104H256.17ZM274.129 99.752C274.129 97.472 271.921 95.84 268.609 95.84H268.537C271.825 95.384 273.505 93.92 273.505 91.736C273.505 89.72 272.137 88.016 268.225 88.016H259.057V104H268.489C272.209 104 274.129 102.176 274.129 99.752ZM268.369 93.008C268.369 93.824 267.793 94.664 266.329 94.664H264.193V91.376H266.329C267.649 91.376 268.369 92 268.369 93.008ZM268.993 98.768C268.993 99.848 268.297 100.64 266.617 100.64H264.193V97.064H266.665C268.153 97.064 268.993 97.736 268.993 98.768ZM292.657 96.008C292.657 91.592 289.633 87.728 283.897 87.728C278.185 87.728 275.161 91.592 275.161 96.008C275.161 100.424 278.185 104.288 283.897 104.288C289.633 104.288 292.657 100.424 292.657 96.008ZM287.377 96.008C287.377 98.456 286.273 100.544 283.897 100.544C281.545 100.544 280.441 98.456 280.441 96.008C280.441 93.56 281.545 91.472 283.897 91.472C286.273 91.472 287.377 93.56 287.377 96.008ZM310.571 92.36C310.571 89.792 308.531 88.016 304.043 88.016H294.659V104H299.795V97.904H302.219C302.963 97.904 303.299 98.192 303.491 98.84C303.683 99.488 303.971 100.448 304.235 101.312C304.571 102.416 304.883 103.28 305.555 104H311.315C310.283 102.896 309.995 101.864 309.515 100.064C308.963 97.952 308.195 96.656 305.939 96.656C305.795 96.656 305.627 96.656 305.459 96.68C308.579 96.152 310.571 94.76 310.571 92.36ZM305.435 93.44C305.435 94.52 304.595 95.24 302.987 95.24H299.795V91.712H303.131C304.763 91.712 305.435 92.432 305.435 93.44ZM329.154 104V88.016H324.018V94.088H318.474V88.016H313.338V104H318.474V97.832H324.018V104H329.154ZM348.65 96.008C348.65 91.592 345.626 87.728 339.89 87.728C334.178 87.728 331.154 91.592 331.154 96.008C331.154 100.424 334.178 104.288 339.89 104.288C345.626 104.288 348.65 100.424 348.65 96.008ZM343.37 96.008C343.37 98.456 342.266 100.544 339.89 100.544C337.538 100.544 336.434 98.456 336.434 96.008C336.434 93.56 337.538 91.472 339.89 91.472C342.266 91.472 343.37 93.56 343.37 96.008ZM367.4 96.008C367.4 91.592 364.376 87.728 358.64 87.728C352.928 87.728 349.904 91.592 349.904 96.008C349.904 100.424 352.928 104.288 358.64 104.288C364.376 104.288 367.4 100.424 367.4 96.008ZM362.12 96.008C362.12 98.456 361.016 100.544 358.64 100.544C356.288 100.544 355.184 98.456 355.184 96.008C355.184 93.56 356.288 91.472 358.64 91.472C361.016 91.472 362.12 93.56 362.12 96.008ZM385.385 96.008C385.385 91.424 382.313 88.016 377.033 88.016H369.401V104H377.033C382.313 104 385.385 100.592 385.385 96.008ZM380.177 96.008C380.177 98.528 378.977 100.424 376.409 100.424H374.537V91.592H376.409C378.977 91.592 380.177 93.488 380.177 96.008Z" fill="black"/>
<path d="M37 115H23V51H37V115Z" fill="black"/>
<path d="M123 40.5925H59.6093V115H46.1451V40.5925H23V32H123V40.5925Z" fill="black"/>
<path d="M123 115H109.571L83.4291 72.8901V115H70V51H83.4291L109.616 93.1978V51H123V115Z" fill="black"/>
</svg>
